G04 Created with the python gerber_writer 0.4.3.3*
G04 #@! TF.CreationDate,1970-01-01T00:00:00*
G04 #@! TF.FileFunction,Legend,Top*
G04 #@! TF.FilePolarity,Positive*
G04 #@! TF.GenerationSoftware,Minerva,pcb_worker/gerber.py,0.2.0*
%MOMM*%
%FSLAX36Y36*%
G75*
G04 #@! TAShape,Circle,0.12*
%ADD10C,0.12*%
G04 #@! TAShape,Circle,0.15*
%ADD11C,0.15*%
%LPD*%
D10*
X9773000Y9265000D02*
G01*
X10227000Y9265000D01*
X9773000Y10735000D02*
X10227000Y10735000D01*
X9773000Y19265000D02*
X10227000Y19265000D01*
X9773000Y20735000D02*
X10227000Y20735000D01*
X31100000Y15000000D02*
G03*
X31100000Y15000000I-1100000J0D01*
D11*
X9833333Y8452380D02*
G01*
X9499999Y7976190D01*
X9261904Y8452380D02*
X9261904Y7452381D01*
X9642857Y7452381D01*
X9738095Y7500000D01*
X9785714Y7547619D01*
X9833333Y7642857D01*
X9833333Y7785714D01*
X9785714Y7880952D01*
X9738095Y7928571D01*
X9642857Y7976190D01*
X9261904Y7976190D01*
X10785714Y8452380D02*
X10214285Y8452380D01*
X10499999Y8452380D02*
X10499999Y7452381D01*
X10404761Y7595238D01*
X10309523Y7690476D01*
X10214285Y7738094D01*
X9833333Y18357143D02*
X9785714Y18404762D01*
X9642857Y18452381D01*
X9547619Y18452381D01*
X9404761Y18404762D01*
X9309523Y18309524D01*
X9261904Y18214286D01*
X9214285Y18023810D01*
X9214285Y17880952D01*
X9261904Y17690476D01*
X9309523Y17595238D01*
X9404761Y17500000D01*
X9547619Y17452381D01*
X9642857Y17452381D01*
X9785714Y17500000D01*
X9833333Y17547619D01*
X10785714Y18452381D02*
X10214285Y18452381D01*
X10499999Y18452381D02*
X10499999Y17452381D01*
X10404761Y17595238D01*
X10309523Y17690476D01*
X10214285Y17738095D01*
X29238095Y12452380D02*
X29238095Y13261905D01*
X29285714Y13357143D01*
X29333333Y13404762D01*
X29428571Y13452380D01*
X29619048Y13452380D01*
X29714286Y13404762D01*
X29761905Y13357143D01*
X29809524Y13261905D01*
X29809524Y12452380D01*
X30809524Y13452380D02*
X30238095Y13452380D01*
X30523809Y13452380D02*
X30523809Y12452380D01*
X30428571Y12595238D01*
X30333333Y12690476D01*
X30238095Y12738095D01*
M02*
