G04 Created with the python gerber_writer 0.4.3.3*
G04 #@! TF.CreationDate,1970-01-01T00:00:00*
G04 #@! TF.FileFunction,Legend,Top*
G04 #@! TF.FilePolarity,Positive*
G04 #@! TF.GenerationSoftware,Minerva,pcb_worker/gerber.py,0.2.0*
%MOMM*%
%FSLAX36Y36*%
G75*
G04 #@! TAShape,Circle,0.15*
%ADD10C,0.15*%
G04 #@! TAShape,Circle,0.12*
%ADD11C,0.12*%
%LPD*%
D10*
X18100000Y-6700000D02*
G01*
X18800000Y-6700000D01*
D11*
X1600000Y-4900000D02*
X4800000Y-4900000D01*
X4800000Y-10640000D01*
X1600000Y-10640000D01*
X1600000Y-4900000D01*
D10*
X15300000Y-12300000D02*
X16000000Y-14300000D01*
X19700000Y-12300000D02*
X19000000Y-14300000D01*
X16000000Y-14300000D02*
X19000000Y-14300000D01*
X16800000Y-14300000D02*
X16800000Y-14700000D01*
X18200000Y-14300000D02*
X18200000Y-14700000D01*
X15905000Y-14652000D02*
X16476000Y-14652000D01*
X16190000Y-15652000D02*
X16190000Y-14652000D01*
X16810000Y-15129000D02*
X17143000Y-15129000D01*
X17286000Y-15652000D02*
X16810000Y-15652000D01*
X16810000Y-14652000D01*
X17286000Y-14652000D01*
X17667000Y-15605000D02*
X17810000Y-15652000D01*
X18048000Y-15652000D01*
X18143000Y-15605000D01*
X18190000Y-15557000D01*
X18238000Y-15462000D01*
X18238000Y-15367000D01*
X18190000Y-15271000D01*
X18143000Y-15224000D01*
X18048000Y-15176000D01*
X17857000Y-15129000D01*
X17762000Y-15081000D01*
X17714000Y-15033000D01*
X17667000Y-14938000D01*
X17667000Y-14843000D01*
X17714000Y-14748000D01*
X17762000Y-14700000D01*
X17857000Y-14652000D01*
X18095000Y-14652000D01*
X18238000Y-14700000D01*
X18524000Y-14652000D02*
X19095000Y-14652000D01*
X18810000Y-15652000D02*
X18810000Y-14652000D01*
X15214000Y-16957000D02*
X15167000Y-17005000D01*
X15024000Y-17052000D01*
X14929000Y-17052000D01*
X14786000Y-17005000D01*
X14690000Y-16910000D01*
X14643000Y-16814000D01*
X14595000Y-16623999D01*
X14595000Y-16481000D01*
X14643000Y-16290000D01*
X14690000Y-16195000D01*
X14786000Y-16100000D01*
X14929000Y-16052000D01*
X15024000Y-16052000D01*
X15167000Y-16100000D01*
X15214000Y-16148000D01*
X15833000Y-16052000D02*
X16024000Y-16052000D01*
X16119000Y-16100000D01*
X16213999Y-16195000D01*
X16262000Y-16386000D01*
X16262000Y-16719000D01*
X16213999Y-16910000D01*
X16119000Y-17005000D01*
X16024000Y-17052000D01*
X15833000Y-17052000D01*
X15738000Y-17005000D01*
X15643000Y-16910000D01*
X15595000Y-16719000D01*
X15595000Y-16386000D01*
X15643000Y-16195000D01*
X15738000Y-16100000D01*
X15833000Y-16052000D01*
X16690000Y-16052000D02*
X16690000Y-16862000D01*
X16738000Y-16957000D01*
X16786000Y-17005000D01*
X16881000Y-17052000D01*
X17071000Y-17052000D01*
X17167000Y-17005000D01*
X17214000Y-16957000D01*
X17262000Y-16862000D01*
X17262000Y-16052000D01*
X17738000Y-17052000D02*
X17738000Y-16052000D01*
X18119000Y-16052000D01*
X18214000Y-16100000D01*
X18262000Y-16148000D01*
X18310000Y-16242999D01*
X18310000Y-16386000D01*
X18262000Y-16481000D01*
X18214000Y-16529000D01*
X18119000Y-16576000D01*
X17738000Y-16576000D01*
X18929000Y-16052000D02*
X19119000Y-16052000D01*
X19214000Y-16100000D01*
X19310000Y-16195000D01*
X19357000Y-16386000D01*
X19357000Y-16719000D01*
X19310000Y-16910000D01*
X19214000Y-17005000D01*
X19119000Y-17052000D01*
X18929000Y-17052000D01*
X18833000Y-17005000D01*
X18738000Y-16910000D01*
X18690000Y-16719000D01*
X18690000Y-16386000D01*
X18738000Y-16195000D01*
X18833000Y-16100000D01*
X18929000Y-16052000D01*
X19786000Y-17052000D02*
X19786000Y-16052000D01*
X20357000Y-17052000D01*
X20357000Y-16052000D01*
X17250000Y-12400000D02*
G03*
X17250000Y-12400000I-750000J0D01*
X19250000Y-12400000D02*
X19250000Y-12400000I-750000J0D01*
X16750000Y-12400000D02*
X16750000Y-12400000I-250000J0D01*
X18750000Y-12400000D02*
X18750000Y-12400000I-250000J0D01*
X16600000Y-4199999D02*
X16600000Y-4199999I-1100000J0D01*
X21899999Y-4500000D02*
X21899999Y-4500000I-1100000J0D01*
X7416666Y-14500000D02*
G01*
X7416666Y-13500000D01*
X7916666Y-13500000D01*
X8083333Y-13666666D01*
X8083333Y-14333333D01*
X7916666Y-14500000D01*
X7416666Y-14500000D01*
X8250000Y-14500000D02*
X8583333Y-13500000D01*
X8916666Y-14500000D01*
X8416666Y-14166666D02*
X8750000Y-14166666D01*
X9083333Y-14500000D02*
X9083333Y-13500000D01*
X9416666Y-13833333D01*
X9750000Y-13500000D01*
X9750000Y-14500000D01*
X10083333Y-13666666D02*
X10250000Y-13500000D01*
X10250000Y-14500000D01*
X9916666Y-14500000D02*
X10583333Y-14500000D01*
X2950000Y-3170000D02*
X2950000Y-4003333D01*
X2783333Y-4170000D01*
X2616666Y-4170000D01*
X2450000Y-4003333D01*
X3450000Y-3336666D02*
X3616666Y-3170000D01*
X3616666Y-4170000D01*
X3283333Y-4170000D02*
X3950000Y-4170000D01*
X17200000Y-12900000D02*
X17800000Y-12900000D01*
X17500000Y-13500000D01*
X17200000Y-12900000D01*
X15300000Y-12300000D02*
G02*
X19700000Y-12300000I2199999J-444444D01*
M02*
