G04 Created with the python gerber_writer 0.4.3.3*
G04 #@! TF.CreationDate,1970-01-01T00:00:00*
G04 #@! TF.FileFunction,Legend,Top*
G04 #@! TF.FilePolarity,Positive*
G04 #@! TF.GenerationSoftware,Minerva,pcb_worker/gerber.py,0.2.0*
%MOMM*%
%FSLAX36Y36*%
G75*
G04 #@! TAShape,Circle,0.15*
%ADD10C,0.15*%
G04 #@! TAShape,Circle,0.12*
%ADD11C,0.12*%
%LPD*%
D10*
X18100000Y-6700000D02*
G01*
X18800000Y-6700000D01*
D11*
X1600000Y-4900000D02*
X4800000Y-4900000D01*
X4800000Y-10640000D01*
X1600000Y-10640000D01*
X1600000Y-4900000D01*
D10*
X15300000Y-12300000D02*
X16000000Y-14300000D01*
X19700000Y-12300000D02*
X19000000Y-14300000D01*
X16000000Y-14300000D02*
X19000000Y-14300000D01*
X16800000Y-14300000D02*
X16800000Y-14700000D01*
X18200000Y-14300000D02*
X18200000Y-14700000D01*
X15917000Y-14652000D02*
X16582999Y-14652000D01*
X16250000Y-14652000D02*
X16250000Y-15652000D01*
X17417000Y-14652000D02*
X16750000Y-14652000D01*
X16750000Y-15652000D01*
X17417000Y-15652000D01*
X16750000Y-15152000D02*
X17250000Y-15152000D01*
X18250000Y-14818999D02*
X18083000Y-14652000D01*
X17750000Y-14652000D01*
X17583000Y-14818999D01*
X17583000Y-14985000D01*
X17750000Y-15152000D01*
X18083000Y-15152000D01*
X18250000Y-15318999D01*
X18250000Y-15485000D01*
X18083000Y-15652000D01*
X17750000Y-15652000D01*
X17583000Y-15485000D01*
X18417000Y-14652000D02*
X19083000Y-14652000D01*
X18750000Y-14652000D02*
X18750000Y-15652000D01*
X15750000Y-16219000D02*
X15583000Y-16052000D01*
X15250000Y-16052000D01*
X15083000Y-16219000D01*
X15083000Y-16884999D01*
X15250000Y-17052000D01*
X15583000Y-17052000D01*
X15750000Y-16884999D01*
X16082999Y-16052000D02*
X16417000Y-16052000D01*
X16582999Y-16219000D01*
X16582999Y-16884999D01*
X16417000Y-17052000D01*
X16082999Y-17052000D01*
X15917000Y-16884999D01*
X15917000Y-16219000D01*
X16082999Y-16052000D01*
X16750000Y-16052000D02*
X16750000Y-16884999D01*
X16917000Y-17052000D01*
X17250000Y-17052000D01*
X17417000Y-16884999D01*
X17417000Y-16052000D01*
X17583000Y-17052000D02*
X17583000Y-16052000D01*
X18083000Y-16052000D01*
X18250000Y-16219000D01*
X18250000Y-16384999D01*
X18083000Y-16552000D01*
X17583000Y-16552000D01*
X18583000Y-16052000D02*
X18917000Y-16052000D01*
X19083000Y-16219000D01*
X19083000Y-16884999D01*
X18917000Y-17052000D01*
X18583000Y-17052000D01*
X18417000Y-16884999D01*
X18417000Y-16219000D01*
X18583000Y-16052000D01*
X19250000Y-17052000D02*
X19250000Y-16052000D01*
X19917000Y-17052000D01*
X19917000Y-16052000D01*
X17250000Y-12400000D02*
G03*
X17250000Y-12400000I-750000J0D01*
X19250000Y-12400000D02*
X19250000Y-12400000I-750000J0D01*
X16750000Y-12400000D02*
X16750000Y-12400000I-250000J0D01*
X18750000Y-12400000D02*
X18750000Y-12400000I-250000J0D01*
X16600000Y-4199999D02*
X16600000Y-4199999I-1100000J0D01*
X21899999Y-4500000D02*
X21899999Y-4500000I-1100000J0D01*
X7416666Y-15025000D02*
G01*
X7416666Y-14025000D01*
X7916666Y-14025000D01*
X8083333Y-14191666D01*
X8083333Y-14858333D01*
X7916666Y-15025000D01*
X7416666Y-15025000D01*
X8250000Y-15025000D02*
X8583333Y-14025000D01*
X8916666Y-15025000D01*
X8416666Y-14691666D02*
X8750000Y-14691666D01*
X9083333Y-15025000D02*
X9083333Y-14025000D01*
X9416666Y-14358333D01*
X9750000Y-14025000D01*
X9750000Y-15025000D01*
X10083333Y-14191666D02*
X10250000Y-14025000D01*
X10250000Y-15025000D01*
X9916666Y-15025000D02*
X10583333Y-15025000D01*
X2950000Y-3170000D02*
X2950000Y-4003333D01*
X2783333Y-4170000D01*
X2616666Y-4170000D01*
X2450000Y-4003333D01*
X3450000Y-3336666D02*
X3616666Y-3170000D01*
X3616666Y-4170000D01*
X3283333Y-4170000D02*
X3950000Y-4170000D01*
X17200000Y-12900000D02*
X17800000Y-12900000D01*
X17500000Y-13500000D01*
X17200000Y-12900000D01*
X15300000Y-12300000D02*
G02*
X19700000Y-12300000I2199999J-444444D01*
M02*
