G04 Created with the python gerber_writer 0.4.3.3*
G04 #@! TF.CreationDate,1970-01-01T00:00:00*
G04 #@! TF.FileFunction,Copper,L1,Top,Signal*
G04 #@! TF.FilePolarity,Positive*
G04 #@! TF.GenerationSoftware,Minerva,pcb_worker/gerber.py,0.2.0*
%MOMM*%
%FSLAX36Y36*%
G75*
%AMRoundedRectangle*
0 Rectangle with rounded corners*
0 Uses primitive 1 and 4 only, without calculations*
0 $1 xsize/2*
0 $2 ysize/2*
0 $3 xsize/2-radius*
0 $4 size/2-radius*
0 $5 rotation angle*
0 $6 diameter*
0 $7 x of center of first quadrant circle*
0 $8 y of center of first quadrant circle*
0 $9 x of center of 2nd quadrant circle*
0 $10 y of center of 2nd quadrant circle*
4,1,8,
$3,$2,
$1,$4,
$1,-$4,
$3,-$2,
-$3,-$2,
-$1,-$4,
-$1,$4,
-$3,$2,
$3,$2,
$5*
1,1,$6,$7,$8*
1,1,$6,-$7,-$8*
1,1,$6,$9,$10*
1,1,$6,-$9,-$10*
%
G04 #@! TA.AperFunction,SMDPad,CuDef*
G04 #@! TAShape,RoundedRectangle,1.2,1.0,0.4,0.0*
%ADD10RoundedRectangle,0.6X0.5X0.2X0.1X0.0X0.8X0.2X0.1X-0.2X0.1*%
G04 #@! TD*
G04 #@! TA.AperFunction,SMDPad,CuDef*
G04 #@! TAShape,RoundedRectangle,0.8,1.6,0.4,0.0*
%ADD11O,0.8X1.6*%
G04 #@! TD*
G04 #@! TA.AperFunction,SMDPad,CuDef*
G04 #@! TAShape,Rectangle,0.6,0.8,0.0*
%ADD12R,0.6X0.8*%
G04 #@! TD*
G04 #@! TA.AperFunction,SMDPad,CuDef*
G04 #@! TAShape,Circle,1.0*
%ADD13C,1.0*%
G04 #@! TD*
G04 #@! TA.AperFunction,ComponentPad*
G04 #@! TAShape,Circle,1.8*
%ADD14C,1.8*%
G04 #@! TD*
G04 #@! TA.AperFunction,ComponentPad*
G04 #@! TAShape,Circle,0.96*
%ADD15C,0.96*%
G04 #@! TD*
G04 #@! TA.AperFunction,ComponentPad*
G04 #@! TAShape,Circle,1.6*
%ADD16C,1.6*%
G04 #@! TD*
G04 #@! TA.AperFunction,ViaPad*
G04 #@! TAShape,Circle,0.66*
%ADD17C,0.66*%
G04 #@! TD*
G04 #@! TA.AperFunction,ViaPad*
G04 #@! TAShape,Circle,0.8*
%ADD18C,0.8*%
G04 #@! TD*
G04 #@! TA.AperFunction,ComponentPad,CuDef*
G04 #@! TAShape,Rectangle,1.8,1.8,0.0*
%ADD19R,1.8X1.8*%
G04 #@! TD*
G04 #@! TA.AperFunction,Conductor*
G04 #@! TAShape,Circle,0.25*
%ADD20C,0.25*%
G04 #@! TD*
G04 #@! TA.AperFunction,Conductor*
G04 #@! TAShape,Circle,0.2*
%ADD21C,0.2*%
G04 #@! TD*
G04 #@! TA.AperFunction,Conductor*
G04 #@! TAShape,Circle,0.1*
%ADD22C,0.1*%
G04 #@! TD*
G04 #@! TA.AperFunction,Conductor*
G04 #@! TAShape,Circle,0.15*
%ADD23C,0.15*%
G04 #@! TD*
%LPD*%
D10*
X19050000Y-8000000D03*
D11*
X20950000Y-8000000D03*
D12*
X8600000Y-16000000D03*
X9400000Y-16000000D03*
D13*
X2000000Y-2000000D03*
X22000000Y-2000000D03*
X2000000Y-16000000D03*
D14*
X3200000Y-9040000D03*
D15*
X6500000Y-2799999D03*
D16*
X15500000Y-4199999D03*
X20799999Y-4500000D03*
D17*
X14600000Y-10399999D03*
X9000000Y-2799999D03*
X11000000Y-2799999D03*
X13000000Y-2799999D03*
D18*
X19700000Y-9649999D03*
D19*
X3200000Y-6500000D03*
D20*
X19049999Y-8000000D02*
G01*
X18549999Y-8050000D01*
X17450000Y-8050000D01*
X16850000Y-8050000D01*
X16850000Y-9750000D01*
X16850000Y-11449999D01*
X10350000Y-11449999D01*
X10350000Y-3849999D01*
X10250000Y-3849999D01*
X10149999Y-3849999D01*
X9449999Y-3849999D01*
X9449999Y-13550000D01*
X7949999Y-13550000D01*
X7949999Y-4949999D01*
X6449999Y-4949999D01*
X6449999Y-13550000D01*
X5050000Y-13550000D01*
X5050000Y-7449999D01*
X3200000Y-7449999D01*
X3200000Y-6500000D01*
X20950000Y-8000000D02*
X20950000Y-8550000D01*
X20950000Y-9649999D01*
X19700000Y-9649999D01*
D21*
X6500000Y-2799999D02*
X9000000Y-2799999D01*
D22*
X20799999Y-4500000D02*
X20799999Y-1450000D01*
X16200000Y-1450000D01*
X16200000Y-1674999D01*
X20799999Y-1674999D01*
D23*
X15500000Y-1899999D02*
X19799999Y-1899999D01*
D22*
X19799999Y-250000D02*
X19799999Y-1250000D01*
X19799999Y-1899999D02*
X19799999Y-2599999D01*
D21*
X15500000Y-2599999D02*
X19799999Y-2599999D01*
D22*
X15500000Y-1250000D02*
X19799999Y-1250000D01*
X15500000Y-4199999D02*
X15500000Y-250000D01*
X14050000Y-4199999D02*
X14050000Y-10000000D01*
X14600000Y-10399999D01*
X15500000Y-4199999D02*
X14050000Y-4199999D01*
D21*
X11000000Y-2799999D02*
X13000000Y-2799999D01*
D22*
X15500000Y-250000D02*
X19799999Y-250000D01*
M02*
