G04 Created with the python gerber_writer 0.4.3.3*
G04 #@! TF.CreationDate,1970-01-01T00:00:00*
G04 #@! TF.FileFunction,Legend,Top*
G04 #@! TF.FilePolarity,Positive*
G04 #@! TF.GenerationSoftware,Minerva,pcb_worker/gerber.py,0.2.0*
%MOMM*%
%FSLAX36Y36*%
G75*
G04 #@! TAShape,Circle,0.15*
%ADD10C,0.15*%
G04 #@! TAShape,Circle,0.12*
%ADD11C,0.12*%
%LPD*%
D10*
X18100000Y-6700000D02*
G01*
X18800000Y-6700000D01*
D11*
X1600000Y-4900000D02*
X4800000Y-4900000D01*
X4800000Y-10640000D01*
X1600000Y-10640000D01*
X1600000Y-4900000D01*
D10*
X15300000Y-12300000D02*
X16000000Y-14300000D01*
X19700000Y-12300000D02*
X19000000Y-14300000D01*
X16000000Y-14300000D02*
X19000000Y-14300000D01*
X16800000Y-14300000D02*
X16800000Y-14700000D01*
X18200000Y-14300000D02*
X18200000Y-14700000D01*
X15905000Y-14652000D02*
X16476000Y-14652000D01*
X16190000Y-15652000D02*
X16190000Y-14652000D01*
X16810000Y-15129000D02*
X17143000Y-15129000D01*
X17286000Y-15652000D02*
X16810000Y-15652000D01*
X16810000Y-14652000D01*
X17286000Y-14652000D01*
X17667000Y-15605000D02*
X17810000Y-15652000D01*
X18048000Y-15652000D01*
X18143000Y-15605000D01*
X18190000Y-15557000D01*
X18238000Y-15462000D01*
X18238000Y-15367000D01*
X18190000Y-15271000D01*
X18143000Y-15224000D01*
X18048000Y-15176000D01*
X17857000Y-15129000D01*
X17762000Y-15081000D01*
X17714000Y-15033000D01*
X17667000Y-14938000D01*
X17667000Y-14843000D01*
X17714000Y-14748000D01*
X17762000Y-14700000D01*
X17857000Y-14652000D01*
X18095000Y-14652000D01*
X18238000Y-14700000D01*
X18524000Y-14652000D02*
X19095000Y-14652000D01*
X18810000Y-15652000D02*
X18810000Y-14652000D01*
X15214000Y-16957000D02*
X15167000Y-17005000D01*
X15024000Y-17052000D01*
X14929000Y-17052000D01*
X14786000Y-17005000D01*
X14690000Y-16910000D01*
X14643000Y-16814000D01*
X14595000Y-16623999D01*
X14595000Y-16481000D01*
X14643000Y-16290000D01*
X14690000Y-16195000D01*
X14786000Y-16100000D01*
X14929000Y-16052000D01*
X15024000Y-16052000D01*
X15167000Y-16100000D01*
X15214000Y-16148000D01*
X15833000Y-16052000D02*
X16024000Y-16052000D01*
X16119000Y-16100000D01*
X16213999Y-16195000D01*
X16262000Y-16386000D01*
X16262000Y-16719000D01*
X16213999Y-16910000D01*
X16119000Y-17005000D01*
X16024000Y-17052000D01*
X15833000Y-17052000D01*
X15738000Y-17005000D01*
X15643000Y-16910000D01*
X15595000Y-16719000D01*
X15595000Y-16386000D01*
X15643000Y-16195000D01*
X15738000Y-16100000D01*
X15833000Y-16052000D01*
X16690000Y-16052000D02*
X16690000Y-16862000D01*
X16738000Y-16957000D01*
X16786000Y-17005000D01*
X16881000Y-17052000D01*
X17071000Y-17052000D01*
X17167000Y-17005000D01*
X17214000Y-16957000D01*
X17262000Y-16862000D01*
X17262000Y-16052000D01*
X17738000Y-17052000D02*
X17738000Y-16052000D01*
X18119000Y-16052000D01*
X18214000Y-16100000D01*
X18262000Y-16148000D01*
X18310000Y-16242999D01*
X18310000Y-16386000D01*
X18262000Y-16481000D01*
X18214000Y-16529000D01*
X18119000Y-16576000D01*
X17738000Y-16576000D01*
X18929000Y-16052000D02*
X19119000Y-16052000D01*
X19214000Y-16100000D01*
X19310000Y-16195000D01*
X19357000Y-16386000D01*
X19357000Y-16719000D01*
X19310000Y-16910000D01*
X19214000Y-17005000D01*
X19119000Y-17052000D01*
X18929000Y-17052000D01*
X18833000Y-17005000D01*
X18738000Y-16910000D01*
X18690000Y-16719000D01*
X18690000Y-16386000D01*
X18738000Y-16195000D01*
X18833000Y-16100000D01*
X18929000Y-16052000D01*
X19786000Y-17052000D02*
X19786000Y-16052000D01*
X20357000Y-17052000D01*
X20357000Y-16052000D01*
X17250000Y-12400000D02*
G03*
X17250000Y-12400000I-750000J0D01*
X19250000Y-12400000D02*
X19250000Y-12400000I-750000J0D01*
X16750000Y-12400000D02*
X16750000Y-12400000I-250000J0D01*
X18750000Y-12400000D02*
X18750000Y-12400000I-250000J0D01*
X16600000Y-4199999D02*
X16600000Y-4199999I-1100000J0D01*
X21899999Y-4500000D02*
X21899999Y-4500000I-1100000J0D01*
X19833333Y-6357143D02*
G01*
X19785714Y-6404762D01*
X19642857Y-6452381D01*
X19547619Y-6452381D01*
X19404761Y-6404762D01*
X19309523Y-6309524D01*
X19261904Y-6214285D01*
X19214285Y-6023810D01*
X19214285Y-5880952D01*
X19261904Y-5690476D01*
X19309523Y-5595238D01*
X19404761Y-5500000D01*
X19547619Y-5452381D01*
X19642857Y-5452381D01*
X19785714Y-5500000D01*
X19833333Y-5547619D01*
X20785714Y-6452381D02*
X20214285Y-6452381D01*
X20499999Y-6452381D02*
X20499999Y-5452381D01*
X20404761Y-5595238D01*
X20309523Y-5690476D01*
X20214285Y-5738094D01*
X7261904Y-14452380D02*
X7261904Y-13452380D01*
X7499999Y-13452380D01*
X7642857Y-13500000D01*
X7738095Y-13595238D01*
X7785714Y-13690476D01*
X7833333Y-13880952D01*
X7833333Y-14023810D01*
X7785714Y-14214286D01*
X7738095Y-14309524D01*
X7642857Y-14404762D01*
X7499999Y-14452380D01*
X7261904Y-14452380D01*
X8214285Y-14166667D02*
X8690476Y-14166667D01*
X8119047Y-14452380D02*
X8452380Y-13452380D01*
X8785714Y-14452380D01*
X9119047Y-14452380D02*
X9119047Y-13452380D01*
X9452381Y-14166667D01*
X9785714Y-13452380D01*
X9785714Y-14452380D01*
X10785714Y-14452380D02*
X10214285Y-14452380D01*
X10499999Y-14452380D02*
X10499999Y-13452380D01*
X10404761Y-13595238D01*
X10309523Y-13690476D01*
X10214285Y-13738095D01*
X928572Y71429D02*
X595237Y71429D01*
X595237Y-452380D02*
X595237Y547619D01*
X1071429Y547619D01*
X1452381Y-452380D02*
X1452381Y547619D01*
X1928571Y-452380D02*
X1928571Y547619D01*
X2166666Y547619D01*
X2309524Y500000D01*
X2404762Y404761D01*
X2452381Y309524D01*
X2500000Y119048D01*
X2500000Y-23810D01*
X2452381Y-214285D01*
X2404762Y-309523D01*
X2309524Y-404762D01*
X2166666Y-452380D01*
X1928571Y-452380D01*
X3452381Y-452380D02*
X2880951Y-452380D01*
X3166666Y-452380D02*
X3166666Y547619D01*
X3071428Y404761D01*
X2976190Y309524D01*
X2880951Y261905D01*
X20928572Y71429D02*
X20595238Y71429D01*
X20595238Y-452380D02*
X20595238Y547619D01*
X21071429Y547619D01*
X21452381Y-452380D02*
X21452381Y547619D01*
X21928571Y-452380D02*
X21928571Y547619D01*
X22166666Y547619D01*
X22309524Y500000D01*
X22404762Y404761D01*
X22452381Y309524D01*
X22500000Y119048D01*
X22500000Y-23810D01*
X22452381Y-214285D01*
X22404762Y-309523D01*
X22309524Y-404762D01*
X22166666Y-452380D01*
X21928571Y-452380D01*
X22880952Y452380D02*
X22928571Y500000D01*
X23023809Y547619D01*
X23261905Y547619D01*
X23357143Y500000D01*
X23404762Y452380D01*
X23452381Y357142D01*
X23452381Y261905D01*
X23404762Y119048D01*
X22833333Y-452380D01*
X23452381Y-452380D01*
X928572Y-13928571D02*
X595237Y-13928571D01*
X595237Y-14452380D02*
X595237Y-13452380D01*
X1071429Y-13452380D01*
X1452381Y-14452380D02*
X1452381Y-13452380D01*
X1928571Y-14452380D02*
X1928571Y-13452380D01*
X2166666Y-13452380D01*
X2309524Y-13500000D01*
X2404762Y-13595238D01*
X2452381Y-13690476D01*
X2500000Y-13880952D01*
X2500000Y-14023810D01*
X2452381Y-14214286D01*
X2404762Y-14309524D01*
X2309524Y-14404762D01*
X2166666Y-14452380D01*
X1928571Y-14452380D01*
X2833332Y-13452380D02*
X3452381Y-13452380D01*
X3119047Y-13833333D01*
X3261904Y-13833333D01*
X3357142Y-13880952D01*
X3404762Y-13928571D01*
X3452381Y-14023810D01*
X3452381Y-14261905D01*
X3404762Y-14357143D01*
X3357142Y-14404762D01*
X3261904Y-14452380D01*
X2976190Y-14452380D01*
X2880951Y-14404762D01*
X2833332Y-14357143D01*
X2866667Y-3122381D02*
X2866667Y-3836667D01*
X2819047Y-3979524D01*
X2723809Y-4074762D01*
X2580952Y-4122381D01*
X2485714Y-4122381D01*
X3866667Y-4122381D02*
X3295238Y-4122381D01*
X3580952Y-4122381D02*
X3580952Y-3122381D01*
X3485714Y-3265238D01*
X3390476Y-3360476D01*
X3295238Y-3408095D01*
X17200000Y-12900000D02*
X17800000Y-12900000D01*
X17500000Y-13500000D01*
X17200000Y-12900000D01*
X15785714Y-12452380D02*
X15309523Y-12452380D01*
X15309523Y-11452380D01*
X16309523Y-11452380D02*
X16500000Y-11452380D01*
X16595238Y-11500000D01*
X16690476Y-11595238D01*
X16738095Y-11785714D01*
X16738095Y-12119048D01*
X16690476Y-12309524D01*
X16595238Y-12404762D01*
X16500000Y-12452380D01*
X16309523Y-12452380D01*
X16214285Y-12404762D01*
X16119047Y-12309524D01*
X16071428Y-12119048D01*
X16071428Y-11785714D01*
X16119047Y-11595238D01*
X16214285Y-11500000D01*
X16309523Y-11452380D01*
X17690476Y-11500000D02*
X17595238Y-11452380D01*
X17452381Y-11452380D01*
X17309523Y-11500000D01*
X17214285Y-11595238D01*
X17166666Y-11690476D01*
X17119047Y-11880952D01*
X17119047Y-12023810D01*
X17166666Y-12214286D01*
X17214285Y-12309524D01*
X17309523Y-12404762D01*
X17452381Y-12452380D01*
X17547619Y-12452380D01*
X17690476Y-12404762D01*
X17738095Y-12357143D01*
X17738095Y-12023810D01*
X17547619Y-12023810D01*
X18357142Y-11452380D02*
X18547619Y-11452380D01*
X18642857Y-11500000D01*
X18738095Y-11595238D01*
X18785714Y-11785714D01*
X18785714Y-12119048D01*
X18738095Y-12309524D01*
X18642857Y-12404762D01*
X18547619Y-12452380D01*
X18357142Y-12452380D01*
X18261904Y-12404762D01*
X18166666Y-12309524D01*
X18119047Y-12119048D01*
X18119047Y-11785714D01*
X18166666Y-11595238D01*
X18261904Y-11500000D01*
X18357142Y-11452380D01*
X19738095Y-12452380D02*
X19166666Y-12452380D01*
X19452380Y-12452380D02*
X19452380Y-11452380D01*
X19357142Y-11595238D01*
X19261904Y-11690476D01*
X19166666Y-11738095D01*
X5238094Y-252380D02*
X5809524Y-252380D01*
X5523809Y-1252380D02*
X5523809Y-252380D01*
X6142857Y-1252380D02*
X6142857Y-252380D01*
X6523810Y-252380D01*
X6619048Y-299999D01*
X6666667Y-347618D01*
X6714286Y-442856D01*
X6714286Y-585713D01*
X6666667Y-680951D01*
X6619048Y-728570D01*
X6523810Y-776189D01*
X6142857Y-776189D01*
X7666667Y-1252380D02*
X7095238Y-1252380D01*
X7380952Y-1252380D02*
X7380952Y-252380D01*
X7285714Y-395237D01*
X7190476Y-490475D01*
X7095238Y-538094D01*
X14238095Y-1652380D02*
X14809524Y-1652380D01*
X14523809Y-2652380D02*
X14523809Y-1652380D01*
X15142857Y-2652380D02*
X15142857Y-1652380D01*
X15523810Y-1652380D01*
X15619048Y-1699999D01*
X15666667Y-1747618D01*
X15714286Y-1842856D01*
X15714286Y-1985713D01*
X15666667Y-2080951D01*
X15619048Y-2128570D01*
X15523810Y-2176189D01*
X15142857Y-2176189D01*
X16095238Y-1747618D02*
X16142857Y-1699999D01*
X16238095Y-1652380D01*
X16476191Y-1652380D01*
X16571428Y-1699999D01*
X16619048Y-1747618D01*
X16666667Y-1842856D01*
X16666667Y-1938094D01*
X16619048Y-2080951D01*
X16047619Y-2652380D01*
X16666667Y-2652380D01*
X19538094Y-1952381D02*
X20109523Y-1952381D01*
X19823808Y-2952381D02*
X19823808Y-1952381D01*
X20442856Y-2952381D02*
X20442856Y-1952381D01*
X20823809Y-1952381D01*
X20919047Y-2000000D01*
X20966666Y-2047619D01*
X21014285Y-2142857D01*
X21014285Y-2285714D01*
X20966666Y-2380951D01*
X20919047Y-2428571D01*
X20823809Y-2476190D01*
X20442856Y-2476190D01*
X21347618Y-1952381D02*
X21966666Y-1952381D01*
X21633332Y-2333333D01*
X21776190Y-2333333D01*
X21871428Y-2380951D01*
X21919047Y-2428571D01*
X21966666Y-2523810D01*
X21966666Y-2761905D01*
X21919047Y-2857142D01*
X21871428Y-2904762D01*
X21776190Y-2952381D01*
X21490475Y-2952381D01*
X21395237Y-2904762D01*
X21347618Y-2857142D01*
X15300000Y-12300000D02*
G02*
X19700000Y-12300000I2199999J-444444D01*
M02*
