G04 Created with the python gerber_writer 0.4.3.3*
G04 #@! TF.CreationDate,1970-01-01T00:00:00*
G04 #@! TF.FileFunction,Legend,Top*
G04 #@! TF.FilePolarity,Positive*
G04 #@! TF.GenerationSoftware,Minerva,pcb_worker/gerber.py,0.2.0*
%MOMM*%
%FSLAX36Y36*%
G75*
G04 #@! TAShape,Circle,0.12*
%ADD10C,0.12*%
G04 #@! TAShape,Circle,0.15*
%ADD11C,0.15*%
%LPD*%
D10*
X6773000Y-9265000D02*
G01*
X7227000Y-9265000D01*
X6773000Y-10735000D02*
X7227000Y-10735000D01*
X22773000Y-9265000D02*
X23227000Y-9265000D01*
X22773000Y-10735000D02*
X23227000Y-10735000D01*
D11*
X6833333Y-8452380D02*
X6499999Y-7976190D01*
X6261904Y-8452380D02*
X6261904Y-7452381D01*
X6642857Y-7452381D01*
X6738095Y-7500000D01*
X6785714Y-7547619D01*
X6833333Y-7642857D01*
X6833333Y-7785714D01*
X6785714Y-7880952D01*
X6738095Y-7928571D01*
X6642857Y-7976190D01*
X6261904Y-7976190D01*
X7785714Y-8452380D02*
X7214285Y-8452380D01*
X7499999Y-8452380D02*
X7499999Y-7452381D01*
X7404761Y-7595238D01*
X7309523Y-7690476D01*
X7214285Y-7738094D01*
X22833333Y-8452380D02*
X22499999Y-7976190D01*
X22261904Y-8452380D02*
X22261904Y-7452381D01*
X22642857Y-7452381D01*
X22738095Y-7500000D01*
X22785714Y-7547619D01*
X22833333Y-7642857D01*
X22833333Y-7785714D01*
X22785714Y-7880952D01*
X22738095Y-7928571D01*
X22642857Y-7976190D01*
X22261904Y-7976190D01*
X23214285Y-7547619D02*
X23261904Y-7500000D01*
X23357142Y-7452381D01*
X23595238Y-7452381D01*
X23690476Y-7500000D01*
X23738095Y-7547619D01*
X23785714Y-7642857D01*
X23785714Y-7738094D01*
X23738095Y-7880952D01*
X23166666Y-8452380D01*
X23785714Y-8452380D01*
M02*
